<?xml version="1.0" encoding="UTF-8"?>
<!DOCTYPE svg PUBLIC "-//W3C//DTD SVG 1.1//EN" "http://www.w3.org/Graphics/SVG/1.1/DTD/svg11.dtd">
<!-- Creator: CorelDRAW 2018 (64-Bit) -->
<svg xmlns="http://www.w3.org/2000/svg" xml:space="preserve" version="1.1" style="shape-rendering:geometricPrecision; text-rendering:geometricPrecision; image-rendering:optimizeQuality; fill-rule:evenodd; clip-rule:evenodd"
viewBox="0 0 5159.14 3772.3"
 xmlns:xlink="http://www.w3.org/1999/xlink">
 <defs>
  <style type="text/css">
   <![CDATA[
    .fil0 {fill:#06b6d4}
   ]]>
  </style>
 </defs>
 <g id="Layer_x0020_1">
  <metadata id="CorelCorpID_0Corel-Layer"/>
  <path class="fil0" d="M-0 1586.53l453.74 -793.26 453.69 -793.27 2088.3 0 -1117.55 3173.11 -970.74 0 -453.69 -793.26 -453.74 -793.32zm5159.14 599.24l-453.74 793.27 -453.69 793.27 -2088.3 0 1117.56 -3173.11 970.74 0 453.69 793.27 453.74 793.32zm-492.61 0l-662.9 -1158.95 -537.65 0 662.9 1158.95 -662.85 1158.9 537.65 0 662.85 -1158.9zm-4173.92 -599.24l662.9 1158.95 537.65 0 -662.9 -1158.95 662.85 -1158.9 -537.65 0 -662.85 1158.9z"/>
 </g>
</svg>
